<svg width="1920" height="1080" viewBox="0 0 1920 1080" fill="none" xmlns="http://www.w3.org/2000/svg"><rect x="341" y="1080" width="1080" height="2" transform="rotate(-90 341 1080)" fill="#2F2F2F" fill-opacity="0.15"/><rect x="650" y="1080" width="1080" height="2" transform="rotate(-90 650 1080)" fill="#2F2F2F" fill-opacity="0.15"/><rect x="959" y="1080" width="1080" height="2" transform="rotate(-90 959 1080)" fill="#2F2F2F" fill-opacity="0.15"/><rect x="1268" y="1080" width="1080" height="2" transform="rotate(-90 1268 1080)" fill="#2F2F2F" fill-opacity="0.15"/><rect x="1577" y="1080" width="1080" height="2" transform="rotate(-90 1577 1080)" fill="#2F2F2F" fill-opacity="0.15"/><rect x="1920" y="1004" width="1920" height="2" transform="rotate(-180 1920 1004)" fill="#2F2F2F" fill-opacity="0.15"/><rect x="1920" y="695" width="1920" height="2" transform="rotate(-180 1920 695)" fill="#2F2F2F" fill-opacity="0.15"/><rect x="1920" y="386" width="1920" height="2" transform="rotate(-180 1920 386)" fill="#2F2F2F" fill-opacity="0.15"/><rect x="1920" y="77" width="1920" height="2" transform="rotate(-180 1920 77)" fill="#2F2F2F" fill-opacity="0.15"/></svg>